<?xml version="1.0" encoding="utf-8"?>
<!-- Generator: Adobe Illustrator 17.0.0, SVG Export Plug-In . SVG Version: 6.00 Build 0)  -->
<!DOCTYPE svg PUBLIC "-//W3C//DTD SVG 1.1//EN" "http://www.w3.org/Graphics/SVG/1.1/DTD/svg11.dtd">
<svg version="1.1" id="Laag_1" xmlns="http://www.w3.org/2000/svg" xmlns:xlink="http://www.w3.org/1999/xlink" x="0px" y="0px"
	 width="200px" height="200px" viewBox="0 0 200 200" enable-background="new 0 0 200 200" xml:space="preserve">
<g>
	<g>
		<path d="M190.958,107.813c-0.235,1.816,1.018,12.993,0.571,24.728c-0.475,12.484-0.961,19.858-1.258,22.173
			c-2.016,1.143-22.14,30.934-22.14,30.934s-33.676,8.395-36.012,9.72c-4.335-1.939-35.147-6.437-35.147-6.437l-35.334-25.73
			L0,21.023l44.345,133.752L56.76,171.18c0,0,37.062,24.457,39.461,24.386c-1.694-0.756,37.787,4.388,35.914,4.434l38.574-10.641
			l23.943-29.707l4.877-39.461l-6.044-36.075l-20.411-33.832L144.698,33.14L29.106,0l109.68,37.722l30.177,19.631l13.044,21.335"/>
	</g>
	<g>
		<path d="M160.907,138.476l12.585-5.783l1.287-13.793l-8.428-5.972l-2.874-2.035l-12.588,6.015L150.531,121h-0.002l-0.923,9.698
			L160.907,138.476z M156.816,120.874l5.987-2.751l5.378,3.81l-0.613,6.562l-5.989,2.752l-5.375-3.811L156.816,120.874z"/>
		<polygon points="67.807,68.89 93.701,78.097 46.119,46.59 		"/>
		<path d="M136.579,83.266l12.585-5.784l1.286-13.793l-8.763-6.21l-2.537-1.797l-12.588,5.783l-0.359,3.86l-0.001,0l-0.925,9.931
			L136.579,83.266z M132.489,65.664l5.987-2.751l5.376,3.809l-0.611,6.562l-5.989,2.752l-5.375-3.811L132.489,65.664z"/>
		<polygon points="89.865,54.121 93.624,42.819 67.419,38.782 65.797,52.284 79.751,62.394 		"/>
		<polygon points="169.898,73.483 168.089,88.544 182.764,99.044 175.679,82.365 		"/>
		<path d="M48.819,85.385l-1.343,6.33l-1.435,8.35l-0.302,0.133l-0.982,10.551l11.844,8.393l13.188-6.061l1.348-14.455l-8.411-5.96
			l-2.591,1.349L48.819,85.385z M63.937,101.938l-0.612,6.562l-5.989,2.752l-5.376-3.811l0.612-6.562l5.987-2.751L63.937,101.938z"
			/>
		<path d="M110.898,146.707l-7.532-5.389l0,0l-0.592-0.424l-0.495-0.354l0,0l-17.032-12.19L57,140.798l0,0l-1.424,0.627
			c3.339,6.427,6.959,13.034,9.318,17.286l-0.014-0.031l0.161-1.731l0,0l0.809-8.689l18.292-8.504L91.69,145h0.002l8.877,6.391
			l-1.867,20.097l-9.243,4.272l10.614,6.03l6.979-3.069L110.898,146.707z"/>
		<path d="M83.626,172.48l9.949-4.572l1.287-13.793l-8.379-5.937l-2.921-2.069l-12.588,5.407L70.614,155h-0.001l-0.827,9.259
			L83.626,172.48z M76.899,156.09l5.988-2.751l5.377,3.81l-0.611,6.562l-5.989,2.752l-5.376-3.811L76.899,156.09z"/>
		<polygon points="79.751,62.394 91.054,70.406 103.642,64.621 104.925,50.827 93.624,42.819 81.036,48.604 		"/>
		<path d="M75.636,96.562l-1.806,19.383l-17.689,8.127l-8.552-6.06l-6.451-14.639l0.116-1.245l1.382-0.609l-8.731-16.476
			l-0.932,0.411l7.61,18.817l-0.032,0.348l2.109,4.787l5.141,12.712c-0.205,0.22,1.232,1.561,1.209,1.627
			c1.178,1.766,0.595,5.869,4.085,12.827l2.764-1.217v0l26.864-11.839l3.845-32.02l-8.62-6.168l0,0L60.919,73.14l-1.551,1.504
			l10.933,14.769"/>
		<path d="M152.299,175.04l1.283-13.793l-11.301-8.009l-12.588,5.786l-1.285,13.79l11.304,8.012L152.299,175.04z M135.617,163.223
			l5.989-2.751l5.376,3.81l-0.612,6.561l-5.987,2.752l-5.376-3.809L135.617,163.223z"/>
		<polygon points="64.969,158.881 64.919,159.411 65.156,159.306 		"/>
		<polygon points="109.575,183.56 108.708,183.942 110.845,184.469 		"/>
		<polygon points="71.137,98.627 27.308,40.637 45.366,106.292 53.422,114.54 62.629,112.43 		"/>
		<polygon points="53.096,136.573 62.053,96.894 29.27,76.296 		"/>
		<polyline points="60.709,28.505 86.988,39.544 95.619,31.297 37.779,18.921 58.953,27.771 		"/>
		<path d="M122.702,175.434l1.869-20.042l18.291-8.405l13.89,9.84l3.354-1.477v0l26.275-11.579
			c0.523-4.741,1.677-15.238,1.771-16.32c-0.293-1.615-2.233-13.14-3.44-20.328l-1.428-1.022l0,0l-18.119-12.968l-27.928,12.307
			l-2.57,1.133l-1.571,16.887l-18.293,8.406l-16.428-11.643l1.869-20.042l18.291-8.404l13.891,9.84l3.354-1.478v0l26.863-11.838
			l2.634-21.922l-4.992-7.669c0,0-21.245-17.043-24.216-18.685l-23.477,10.346l0,0l-2.251,0.992l-1.571,16.887l-18.293,8.406
			l-13.901-9.852c-0.243,0.468-0.459,0.892-0.634,1.241l-11.077-7.97l-0.629,5.232l11.073,11.663L84.822,84h-0.001l5.715,3.87
			l29.327-13.033l0.823-8.887l0.002-0.023l0.752-8.08l18.291-8.408l7.548,5.344l0.001-0.002l8.877,6.288l-1.868,20.045
			l-18.229,8.404L129,84.47v0.002l-6.826-4.792L91.898,93.008l-3.71,30.866L109.169,139h-0.011l5.711,3.975l29.317-12.981
			l0.814-8.889v0.002l0.76-8.064l18.296-8.395l7.551,5.352h0.002l8.876,6.284l-1.868,20.042l-18.293,8.404l-7.125-5.051l0.001,0.003
			l-6.761-4.791l-30.244,13.328l-3.694,30.751l12.599,9.013l3.784,0.933l9.9-2.084L122.702,175.434z"/>
		<polygon points="161.246,160.792 161.245,160.792 158.993,161.783 157.422,178.67 140.407,186.489 165.389,181.23 
			176.245,162.566 183.073,151.173 		"/>
		<path d="M105.364,103.814l-1.285,13.79l11.303,8.012l12.587-5.786l1.283-13.793l-11.301-8.009L105.364,103.814z M122.042,115.633
			l-5.988,2.752l-5.377-3.81l0.611-6.562l5.988-2.752l5.376,3.809L122.042,115.633z"/>
		<polygon points="75.036,34.494 87.436,39.678 94.205,36.568 108.095,46.408 110.395,45.395 110.395,45.395 110.788,45.221 
			111.448,44.93 111.448,44.931 127.09,38.038 86.642,29.38 		"/>
		<polygon points="78.356,99.963 75.288,90.372 86.57,91.498 38.138,48.363 		"/>
		<polygon points="75.288,59.108 72.986,39.928 39.228,32.831 		"/>
	</g>
</g>
</svg>
