<?xml version="1.0" encoding="utf-8"?>
<!-- Generator: Adobe Illustrator 17.0.0, SVG Export Plug-In . SVG Version: 6.00 Build 0)  -->
<!DOCTYPE svg PUBLIC "-//W3C//DTD SVG 1.1//EN" "http://www.w3.org/Graphics/SVG/1.1/DTD/svg11.dtd">
<svg version="1.1" id="Laag_1" xmlns="http://www.w3.org/2000/svg" xmlns:xlink="http://www.w3.org/1999/xlink" x="0px" y="0px"
	 width="434.596px" height="434.596px" viewBox="0 0 434.596 434.596" enable-background="new 0 0 434.596 434.596"
	 xml:space="preserve">
<g id="rni">
	<g>
		<g id="XMLID_7_">
			<g>
				<path d="M380.605,285.145v51.213h-23.899l-1.243-0.03C367.983,323.039,380.605,304.861,380.605,285.145z"/>
				<path d="M247.514,236.055l0.184-0.062c13.564-15.103,33.25-24.576,55.119-24.576c40.908,0,77.79,33.373,77.79,74.281
					l-30.699,0.492c0-25.283-21.255-42.355-46.507-42.355s-45.645,20.485-45.645,45.769v0.676v46.076h-33.804v-68.622
					c0-1.538,0,0,0-5.445c0-20.146-17.102-37.587-37.034-38.909v-0.062l-1.6-0.123h-42.968l14.61-28.851h20.608l0.4-0.03
					c0.031,0,0.092,0,0.123,0c0.184,0,0.338,0.03,0.522,0.03c1.446,0,2.891-0.092,4.306-0.246c0.123,0,0.246-0.031,0.369-0.031
					c18.763-2.307,33.312-18.332,33.312-37.71c0-20.978-17.01-37.955-37.986-37.955c-16.363,0-30.327,10.366-35.648,24.915
					l-18.947-23.869l-4.736,8.305c10.366-22.362,33.066-37.894,59.333-37.894c36.141,0,65.424,29.313,65.424,65.423
					c0,20.884-9.781,39.463-25.038,51.428C232.411,211.631,242.992,222.458,247.514,236.055z"/>
				<path d="M349.908,286.19l30.697-1.046c0,19.716-11.379,37.895-23.899,51.182v0.03h-6.798V286.19z"/>
				<path d="M124.018,119.449l18.947,23.869l-22.823,40.908l-1.49,2.364c-4.275-8.675-5.463-20.973-5.463-31.307
					c0-9.843,2.184-19.162,6.091-27.528L124.018,119.449z"/>
				<path d="M120.142,184.226L35.311,336.357H0l120.525-209.847c-3.907,8.366-7.334,18.93-7.334,28.772
					c0,10.335,2.43,20.147,6.706,28.82L120.142,184.226z"/>
			</g>
		</g>
		<circle cx="411.7" cy="113.549" r="20.3"/>
	</g>
</g>
</svg>
